<svg width="226" height="260" viewBox="0 0 226 260" fill="none" xmlns="http://www.w3.org/2000/svg">
<rect x="54" y="156.266" width="122" height="98.7342" rx="15" fill="#FDCB6B"/>
<ellipse cx="116" cy="196.747" rx="16" ry="16.7848" fill="#DF9B18"/>
<rect x="108" y="205.633" width="16" height="23.6962" fill="#DF9B18"/>
<path d="M162 157.253C162 149.603 160.784 142.028 158.422 134.961C156.06 127.893 152.598 121.471 148.234 116.062C143.87 110.653 138.688 106.362 132.986 103.434C127.284 100.507 121.172 99 115 99C108.828 99 102.716 100.507 97.0139 103.434C91.3116 106.362 86.1303 110.653 81.766 116.062C77.4016 121.471 73.9396 127.893 71.5777 134.961C69.2157 142.028 68 149.603 68 157.253H81.6254C81.6254 151.821 82.4886 146.442 84.1659 141.423C85.8431 136.405 88.3015 131.844 91.4006 128.003C94.4997 124.162 98.1789 121.115 102.228 119.036C106.277 116.958 110.617 115.888 115 115.888C119.383 115.888 123.723 116.958 127.772 119.036C131.821 121.115 135.5 124.162 138.599 128.003C141.699 131.844 144.157 136.405 145.834 141.423C147.511 146.442 148.375 151.821 148.375 157.253H162Z" fill="#C4C3C3"/>
<path d="M154.01 146.343C155.07 146.191 155.838 145.248 155.729 144.183C155.135 138.381 153.577 132.877 151.185 128.17C149.205 124.273 146.71 121.035 143.865 118.642C142.447 117.449 140.391 118.279 139.91 120.068C139.582 121.287 140.123 122.559 141.126 123.324C143.785 125.353 146.109 128.247 147.916 131.804C149.813 135.537 151.078 139.874 151.616 144.453C151.756 145.639 152.827 146.513 154.01 146.343Z" fill="white"/>
<rect x="203.391" y="125" width="4.34783" height="15.6522" rx="2.17391" fill="#54B02B"/>
<rect x="210.348" y="146.739" width="4.34783" height="15.6522" rx="2.17391" transform="rotate(-90 210.348 146.739)" fill="#54B02B"/>
<rect width="3.47826" height="8.69565" rx="1.73913" transform="matrix(0.70185 -0.712325 0.70185 0.712325 207.739 149.217)" fill="#54B02B"/>
<rect width="3.47826" height="8.69565" rx="1.73913" transform="matrix(0.70185 -0.712325 0.70185 0.712325 193.826 136.173)" fill="#54B02B"/>
<rect width="3.47826" height="8.69565" rx="1.73913" transform="matrix(0.70185 0.712325 -0.70185 0.712325 213.842 133.696)" fill="#54B02B"/>
<rect width="3.47826" height="8.69565" rx="1.73913" transform="matrix(0.70185 0.712325 -0.70185 0.712325 200.799 146.739)" fill="#54B02B"/>
<rect x="186" y="146.739" width="4.34783" height="15.6522" rx="2.17391" transform="rotate(-90 186 146.739)" fill="#54B02B"/>
<rect x="207.739" y="165" width="4.34783" height="15.6522" rx="2.17391" transform="rotate(-180 207.739 165)" fill="#54B02B"/>
</svg>
