<svg width="226" height="260" viewBox="0 0 226 260" fill="none" xmlns="http://www.w3.org/2000/svg">
<path d="M176 227.518C176 262.698 151.998 257.763 112.243 257.763C72.4874 257.763 49 262.698 49 227.518C49 192.337 72.4874 130.365 112.243 130.365C151.998 130.365 176 192.337 176 227.518Z" fill="#AD8B3A"/>
<path d="M104.218 165.639C107.809 172.659 117.731 172.956 121.736 166.164L150.998 116.525C155.104 109.56 149.675 100.854 141.613 101.476L89.037 105.535C81.9182 106.084 77.6522 113.702 80.9037 120.059L104.218 165.639Z" fill="#AD8B3A"/>
<path d="M117.002 217.526C117.002 216.458 116.703 215.612 116.104 214.987C115.518 214.349 114.515 213.763 113.096 213.229C111.677 212.695 110.453 212.168 109.424 211.647C108.395 211.113 107.51 210.508 106.768 209.831C106.039 209.141 105.466 208.333 105.049 207.409C104.645 206.484 104.444 205.384 104.444 204.108C104.444 201.908 105.147 200.104 106.553 198.698C107.959 197.292 109.828 196.471 112.158 196.237V192.057H115.283V196.296C117.588 196.621 119.392 197.585 120.694 199.186C121.996 200.775 122.647 202.839 122.647 205.378H117.002C117.002 203.815 116.677 202.65 116.026 201.882C115.388 201.1 114.528 200.71 113.448 200.71C112.38 200.71 111.553 201.016 110.967 201.628C110.381 202.227 110.088 203.06 110.088 204.128C110.088 205.117 110.375 205.912 110.948 206.51C111.52 207.109 112.582 207.721 114.131 208.346C115.694 208.971 116.976 209.564 117.979 210.124C118.981 210.671 119.828 211.296 120.518 211.999C121.208 212.689 121.735 213.483 122.1 214.382C122.464 215.267 122.647 216.302 122.647 217.487C122.647 219.701 121.957 221.497 120.576 222.878C119.196 224.258 117.295 225.072 114.873 225.319V229.206H111.768V225.339C109.099 225.052 107.028 224.108 105.557 222.507C104.099 220.892 103.369 218.75 103.369 216.081H109.014C109.014 217.63 109.379 218.822 110.108 219.655C110.85 220.475 111.911 220.885 113.291 220.885C114.437 220.885 115.342 220.586 116.006 219.987C116.67 219.375 117.002 218.555 117.002 217.526Z" fill="white"/>
<path d="M142.625 217.526C142.625 216.458 142.326 215.612 141.727 214.987C141.141 214.349 140.138 213.763 138.719 213.229C137.3 212.695 136.076 212.168 135.047 211.647C134.018 211.113 133.133 210.508 132.391 209.831C131.662 209.141 131.089 208.333 130.672 207.409C130.268 206.484 130.067 205.384 130.067 204.108C130.067 201.908 130.77 200.104 132.176 198.698C133.582 197.292 135.451 196.471 137.781 196.237V192.057H140.906V196.296C143.211 196.621 145.015 197.585 146.317 199.186C147.619 200.775 148.27 202.839 148.27 205.378H142.625C142.625 203.815 142.3 202.65 141.649 201.882C141.011 201.1 140.151 200.71 139.071 200.71C138.003 200.71 137.176 201.016 136.59 201.628C136.004 202.227 135.711 203.06 135.711 204.128C135.711 205.117 135.998 205.912 136.571 206.51C137.143 207.109 138.205 207.721 139.754 208.346C141.317 208.971 142.599 209.564 143.602 210.124C144.604 210.671 145.451 211.296 146.141 211.999C146.831 212.689 147.358 213.483 147.723 214.382C148.087 215.267 148.27 216.302 148.27 217.487C148.27 219.701 147.58 221.497 146.199 222.878C144.819 224.258 142.918 225.072 140.496 225.319V229.206H137.391V225.339C134.722 225.052 132.651 224.108 131.18 222.507C129.722 220.892 128.992 218.75 128.992 216.081H134.637C134.637 217.63 135.002 218.822 135.731 219.655C136.473 220.475 137.534 220.885 138.914 220.885C140.06 220.885 140.965 220.586 141.629 219.987C142.293 219.375 142.625 218.555 142.625 217.526Z" fill="white"/>
<path d="M91.3795 217.526C91.3795 216.458 91.08 215.612 90.4811 214.987C89.8951 214.349 88.8925 213.763 87.4733 213.229C86.054 212.695 84.83 212.168 83.8014 211.647C82.7727 211.113 81.8873 210.508 81.1451 209.831C80.416 209.141 79.8431 208.333 79.4264 207.409C79.0227 206.484 78.8209 205.384 78.8209 204.108C78.8209 201.908 79.524 200.104 80.9303 198.698C82.3365 197.292 84.205 196.471 86.5358 196.237V192.057H89.6608V196.296C91.9655 196.621 93.7688 197.585 95.0709 199.186C96.373 200.775 97.024 202.839 97.024 205.378H91.3795C91.3795 203.815 91.054 202.65 90.403 201.882C89.7649 201.1 88.9056 200.71 87.8248 200.71C86.7571 200.71 85.9303 201.016 85.3444 201.628C84.7584 202.227 84.4655 203.06 84.4655 204.128C84.4655 205.117 84.7519 205.912 85.3248 206.51C85.8977 207.109 86.9589 207.721 88.5084 208.346C90.0709 208.971 91.3535 209.564 92.3561 210.124C93.3587 210.671 94.205 211.296 94.8951 211.999C95.5852 212.689 96.1126 213.483 96.4772 214.382C96.8418 215.267 97.024 216.302 97.024 217.487C97.024 219.701 96.3339 221.497 94.9537 222.878C93.5735 224.258 91.6725 225.072 89.2506 225.319V229.206H86.1451V225.339C83.4759 225.052 81.4056 224.108 79.9342 222.507C78.4759 220.892 77.7467 218.75 77.7467 216.081H83.3912C83.3912 217.63 83.7558 218.822 84.485 219.655C85.2272 220.475 86.2884 220.885 87.6686 220.885C88.8144 220.885 89.7194 220.586 90.3834 219.987C91.0475 219.375 91.3795 218.555 91.3795 217.526Z" fill="white"/>
<rect x="83.535" y="140.658" width="12.3518" height="59.0439" rx="6.1759" transform="rotate(-90 83.535 140.658)" fill="#FDCB6B"/>
</svg>
