<svg width="210" height="260" viewBox="0 0 210 260" fill="none" xmlns="http://www.w3.org/2000/svg">
<path d="M49.7279 90.8385C48.2544 88.3381 44.4429 89.1786 44.1578 92.0667L39.3526 140.733C39.077 143.524 42.4422 145.133 44.442 143.166L53.1088 134.64C53.3931 134.36 53.7304 134.14 54.1008 133.992L67.9006 128.485C69.6085 127.804 70.3069 125.76 69.3733 124.176L49.7279 90.8385Z" fill="#EA796B"/>
<path d="M52.3722 102.273C51.2683 99.2042 46.7509 99.8526 46.5547 103.108L45.1821 125.882C44.9947 128.991 49.0836 130.291 50.7258 127.644L50.9358 127.306C51.1668 126.934 51.4766 126.616 51.8433 126.377L57.3074 122.804C58.4702 122.044 58.9589 120.585 58.4887 119.278L52.3722 102.273Z" fill="#D25C58"/>
<rect x="42" y="216" width="35.5745" height="43.5676" rx="2" fill="#D25C58"/>
<rect x="127.475" y="224.865" width="35.5745" height="35.1351" rx="2" fill="#D25C58"/>
<ellipse cx="113.394" cy="173.568" rx="95.6064" ry="72.3784" fill="#F18876"/>
<rect x="66.7021" y="224.865" width="35.5745" height="35.1351" rx="2" fill="#F18876"/>
<rect x="151.192" y="206.595" width="35.5745" height="53.4054" rx="2" fill="#F18876"/>
<path d="M89.9713 95.7038C91.5006 93.321 95.1761 94.1883 95.4788 97.0034L101.436 152.399C101.731 155.139 98.4867 156.793 96.4423 154.946L84.9807 144.594C84.6953 144.336 84.363 144.136 84.0019 144.003L67.2517 137.866C65.4488 137.205 64.7219 135.045 65.7591 133.429L89.9713 95.7038Z" fill="#EA796B"/>
<path d="M84.4566 109.268C85.8178 106.565 89.871 107.349 90.1254 110.365L92.6103 139.815C92.8543 142.707 89.2592 144.226 87.3561 142.035L84.2552 138.465C83.9796 138.148 83.6404 137.892 83.2597 137.714L75.4312 134.059C73.8984 133.343 73.2602 131.502 74.0211 129.991L84.4566 109.268Z" fill="#D25C58"/>
<ellipse cx="34.0923" cy="147.568" rx="7.41135" ry="7.02703" fill="#FDFDFD"/>
<ellipse cx="32.6099" cy="146.865" rx="4.44681" ry="4.91892" fill="black"/>
<ellipse cx="61.5141" cy="153.189" rx="9.63475" ry="8.43243" fill="#FDFDFD"/>
<ellipse cx="59.2908" cy="152.486" rx="5.92908" ry="6.32432" fill="black"/>
<ellipse cx="11.117" cy="183.405" rx="11.117" ry="23.1892" fill="#F18876"/>
<path d="M10.3759 160.216H27.909L33.2452 166.541L35.5321 171.129L37.0567 176.378V185.513L35.5321 193.243L33.2452 199.774L25.9397 204.548L11.1382 206.595L14.8227 202.502L17.999 197.459L19.5236 191.135L20.2859 184.108V176.378L19.2695 171.129L17.2366 166.541L10.3759 160.216Z" fill="#EA796B"/>
<ellipse cx="11.1171" cy="184.108" rx="2.2234" ry="5.62162" fill="#D25C58"/>
<ellipse cx="3.7057" cy="183.405" rx="2.2234" ry="4.91892" fill="#D25C58"/>
<ellipse cx="90.4184" cy="19.6757" rx="20.7518" ry="19.6757" fill="#0400D1"/>
<ellipse cx="89.8725" cy="19.1579" rx="18.0213" ry="17.0868" fill="#FDFDFD"/>
<rect x="89.3263" y="5.1778" width="2.1844" height="16.569" rx="1.0922" fill="black"/>
<rect width="2.08469" height="13.0287" rx="1.04235" transform="matrix(0.358378 -0.933577 0.945295 0.326218 87.1633 18.5237)" fill="black"/>
<ellipse cx="150.45" cy="65.3514" rx="24.4574" ry="23.1892" fill="#DF9B18"/>
<ellipse cx="151.191" cy="66.0541" rx="19.2695" ry="18.2703" fill="#FDCB6B"/>
<path d="M153.359 68.3379C153.359 67.7389 153.148 67.2344 152.725 66.8242C152.308 66.4141 151.602 66.043 150.605 65.7109C149.219 65.2878 148.206 64.7376 147.568 64.0605C146.937 63.377 146.621 62.5111 146.621 61.4629C146.621 60.3952 146.93 59.5195 147.549 58.8359C148.174 58.1523 149.03 57.7454 150.117 57.6152V55.4766H151.572V57.625C152.666 57.7747 153.516 58.2337 154.121 59.002C154.733 59.7702 155.039 60.8216 155.039 62.1562H153.242C153.242 61.2383 153.024 60.5091 152.588 59.9688C152.152 59.4284 151.562 59.1582 150.82 59.1582C150.046 59.1582 149.453 59.36 149.043 59.7637C148.633 60.1608 148.428 60.7174 148.428 61.4336C148.428 62.0977 148.643 62.6283 149.072 63.0254C149.508 63.416 150.221 63.7741 151.211 64.0996C152.207 64.4186 152.982 64.7734 153.535 65.1641C154.095 65.5482 154.505 65.9974 154.766 66.5117C155.033 67.026 155.166 67.6283 155.166 68.3184C155.166 69.4186 154.834 70.304 154.17 70.9746C153.512 71.6452 152.588 72.0423 151.396 72.166V74.0312H149.951V72.166C148.74 72.0553 147.79 71.6257 147.1 70.877C146.416 70.1217 146.074 69.0996 146.074 67.8105H147.881C147.881 68.7155 148.118 69.4121 148.594 69.9004C149.069 70.3887 149.743 70.6328 150.615 70.6328C151.468 70.6328 152.139 70.4277 152.627 70.0176C153.115 69.6074 153.359 69.0475 153.359 68.3379Z" fill="#DF9B18"/>
<path d="M159.867 119.361C147.361 110.302 132.506 106.076 118.571 107.614L119.694 111.91C132.523 110.495 146.198 114.385 157.711 122.725L159.867 119.361Z" fill="#D25C58"/>
</svg>
